<svg width="745" height="70" viewBox="0 0 745 70" fill="none" xmlns="http://www.w3.org/2000/svg">
<mask id="path-1-inside-1_7_285" fill="white">
<path d="M0 0H745V50C745 61.0457 736.046 70 725 70H20C8.9543 70 0 61.0457 0 50V0Z"/>
</mask>
<path d="M0 0H745V50C745 61.0457 736.046 70 725 70H20C8.9543 70 0 61.0457 0 50V0Z" fill="#D05F35"/>
<path d="M0 0H745H0ZM749 50C749 63.2548 738.255 74 725 74H24C10.7452 74 0 63.2548 0 50C0 58.8366 8.9543 66 20 66H725C733.837 66 741 58.8366 741 50H749ZM0 70V0V70ZM749 0V50C749 63.2548 738.255 74 725 74V66C733.837 66 741 58.8366 741 50V0H749Z" fill="#A34F2F" mask="url(#path-1-inside-1_7_285)"/>
</svg>
