<svg width="739" height="70" viewBox="0 0 739 70" fill="none" xmlns="http://www.w3.org/2000/svg">
<mask id="path-1-inside-1_14_653" fill="white">
<path d="M0 0H739V50C739 61.0457 730.046 70 719 70H20C8.95431 70 0 61.0457 0 50V0Z"/>
</mask>
<path d="M0 0H739V50C739 61.0457 730.046 70 719 70H20C8.95431 70 0 61.0457 0 50V0Z" fill="#A34F2F"/>
<path d="M0 0H739H0ZM743 50C743 63.2548 732.255 74 719 74H24C10.7452 74 0 63.2548 0 50C0 58.8366 8.9543 66 20 66H719C727.837 66 735 58.8366 735 50H743ZM0 70V0V70ZM743 0V50C743 63.2548 732.255 74 719 74V66C727.837 66 735 58.8366 735 50V0H743Z" fill="#D05F35" mask="url(#path-1-inside-1_14_653)"/>
<rect x="288" y="15" width="164" height="40" rx="15" fill="#D05F35"/>
</svg>
